<?xml version="1.0" encoding="UTF-8"?>
<svg viewBox="0 0 492.72852 510.44727" xmlns="http://www.w3.org/2000/svg">
 <g transform="translate(-121.4 -168.37)">
  <path d="m148.09375,171.1875-.75.65625 89.09375,102.96875 .75-.65625zm111.625,86.28125c.28451-.1815.55826-.3824.84375-.5625l-29.84375-46.28125-.84375.53125zm82.09375-29.71875 1-.125-3.9375-31.96875-1,.125zm64.875,2.3125c.3326.0665.668.11935 1,.1875l4.9375-24.3125-1-.21875zm1,.1875-.25,1.125c8.30396,1.70429 16.42104,3.9216 24.3125,6.625l.375-1.09375c-7.93648-2.71919-16.08644-4.94194-24.4375-6.65625zm24.4375,6.65625 .96875.34375 5.84375-16.46875h.71875v-2.125l-1-.1875zm.96875.34375-.375,1.09375c7.70355,2.68369 15.19821,5.83529 22.4375,9.40625l.5-1.03125c-7.2803-3.59127-14.81561-6.7697-22.5625-9.46875zm22.5625,9.46875c.29183.14396.58398.29217.875.4375l31.625-64-.875-.4375zm.875.4375-.5,1.03125c7.37145,3.68165 14.46604,7.80908 21.28125,12.34375l.65625-.96875c-6.85887-4.56381-14.01874-8.70142-21.4375-12.40625zm21.4375,12.40625c.27374.18214.53971.37905.8125.5625l20.625-30.78125-.8125-.5625zm52.15625,50.46875c.19004.26574.40498.51454.59375.78125l25.125-17.6875-.5625-.8125zm17.875,30.28125c.14301.30007.26469.60535.40625.90625l39.6875-18.75-.40625-.90625zm.40625.90625-1.03125.46875c9.17382,19.50312 15.28647,40.74949 17.6875,63.09375l1.15625-.0937c-2.41268-22.48765-8.57801-43.84031-17.8125-63.46875zm17.8125,63.46875c.0346.32279.0607.64551.0937.96875l45.875-4.375-.0937-1zm.0937.96875-1.15625.0937c.69209,6.75084 1.0625,13.59736 1.0625,20.53125 0,2.1677-.0562,4.31776-.125,6.46875l1.15625.0312c.069-2.16053.125-4.32272.125-6.5 0-6.96231-.36845-13.84598-1.0625-20.625zm.9375,27.125c-.0106.3323-.019.66811-.0312,1l39.84375.84375 .0312-1zm-.0312,1-1.15625-.0312c-.64095,17.35701-3.50207,34.14894-8.3125,50.09375l1.09375.34375c4.84604-16.05043 7.73085-32.93386 8.375-50.40625zm-8.375,50.40625c-.0973.32212-.18242.64732-.28125.96875l13.03125,4 .28125-.96875zm-18.78125,43.03125-.5.84375 32.90625,19.625 .53125-.84375zm-79,75.875-.90625.46875 38.40625,73.25 .875-.46875zm-87.8125,23.25-1,.0312 1,33.03125 1-.0312zm-1,.0312-.0312-1.15625c-1.66548.0412-3.3246.0625-5,.0625-15.27708,0-30.14802-1.70927-44.4375-4.96875l-.25,1.125c14.37154,3.27884 29.32357,5 44.6875,5 1.68518,0 3.35604-.0211 5.03125-.0625zm-49.71875-4.9375c-.32494-.0741-.64441-.17428-.96875-.25l-7.90625,34.0625 .96875.21875zm-.96875-.25 .25-1.125c-20.56229-4.79993-39.90716-12.77971-57.46875-23.40625l-.59375,1c17.666,10.69085 37.12899,18.70282 57.8125,23.53125zm-57.8125-23.5312-.84375-.5-19.90625,32.6875 .84375.5zm-.84375-.5 .625-1c-8.59355-5.25656-16.76855-11.1347-24.4375-17.59375l-.71875.84375c7.71068,6.49506 15.89142,12.46344 24.53125,17.75zm-24.53125-17.75c-.24973-.21036-.50132-.41344-.75-.625l-20.84375,24.71875 .75.65625zm-48.90625-61.0625c-.15275-.29431-.31742-.57984-.46875-.875l-23.59375,12.1875 .46875.875zm-12.3125-29.21875c-.1061-.32096-.20798-.64708-.3125-.96875l-18.4375,6.09375 .3125.96875zm-.3125-.96875 1.09375-.34375c-3.92647-12.0866-6.72911-24.67846-8.28125-37.65625l-1.15625.15625c1.56158,13.04864 4.39499,25.69041 8.34375,37.84375zm-8.34375-37.84375c-.0399-.33304-.0868-.66646-.125-1l-44.21875,5.53125 .125,1zm-.125-1 1.15625-.15625c-.55947-4.88712-.95742-9.82434-1.15625-14.8125l-1.15625.0312c.20002,5.0278.59184,10.01167 1.15625,14.9375zm-1.15625-14.9375c-.0132-.33165-.0197-.66794-.0312-1l-31.875,1.25 .0625,1zm-.0312-1 1.15625-.0312c-.0819-2.34641-.125-4.69611-.125-7.0625 0-6.80467.33315-13.52756 1-20.15625l-1.1563-.12505c-.67089,6.66693-1,13.4375-1,20.28125 0,2.37589.0429,4.73786.125,7.09375zm.87495-27.375c.0337-.33454.0897-.66595.125-1l-35.8125-3.6875-.125,1zm.125-1 1.15625.125c2.33734-22.1119 8.30505-43.15473 17.28125-62.5l-1.03125-.5c-9.0385,19.46787-15.05403,40.62234-17.40625,62.875zm17.40625-62.875c.14008-.30172.26471-.60534.40625-.90625l-36.3125-16.65625-.40625.9375zm.40625-.90625 1.0625.46875c8.07535-17.16783 18.52391-32.97379 30.9375-47.03125l-.84375-.78125c-12.49598,14.14669-23.02885,30.06548-31.15625,47.34375zm31.15625-47.34375 .65625-.75-20.53125-17.96875-.65625.75zm.65625-.75 .84375.78125c5.77138-6.4702 11.96891-12.5809 18.53125-18.25l-.75-.84375c-6.59537,5.69797-12.8238,11.81012-18.625,18.3125zm19.375-17.46875 5.75,6.65625c.24603-.21257.50287-.41367.75-.625l-5.75-6.65625c-.24893.21292-.50214.41088-.75.625zm6.5,6.03125 .78125.90625c6.70684-5.73316 13.81115-10.98845 21.28125-15.75l-.65625-1.03125c-7.51222,4.79113-14.66134,10.10718-21.40625,15.875zm21.40625-15.875c.28802-.1837.58592-.34907.875-.53125l-4.78125-7.40625c-.28639.18063-.55835.38046-.84375.5625zm.875-.53125 .625,1.03125c22.72253-14.31659 48.7129-23.9303 76.59375-27.46875l-.15625-1.21875c-28.0563,3.56188-54.19728,13.24593-77.0625,27.65625zm77.0625-27.65625 1-.125-1.0625-8.71875-1,.125zm61.65625,2.1875c.33102.0661.6696.11965 1,.1875l1.75-8.625c-.33189-.0681-.66751-.12104-1-.1875zm1,.1875-.25,1.1875c7.84288,1.61015 15.51341,3.70108 22.96875,6.25l.40625-1.15625c-7.50958-2.56892-15.22493-4.65897-23.125-6.28125zm23.125,6.28125 .96875.34375 2.9375-8.28125-.96875-.34375zm.96875.34375-.40625,1.15625c7.33343,2.55249 14.45332,5.53835 21.34375,8.9375l.53125-1.09375c-6.9277-3.41727-14.09639-6.43311-21.46875-9zm21.46875,9c.29244.14425.58341.29179.875.4375l3.90625-7.875-.875-.4375zm21.1875,12.1875c.27384.18219.53966.37893.8125.5625l4.90625-7.3125c-.27611-.18572-.56666-.34688-.84375-.53125zm.8125.5625-.6875,1.03125c18.82608,12.6652 35.24892,28.59589 48.4375,47.03125l1-.6875c-13.27494-18.55589-29.80149-34.62614-48.75-47.375zm48.75,47.375c.19188.26821.37198.54325.5625.8125l7.21875-5.0625c-.19379-.27389-.39862-.53963-.59375-.8125zm.5625.8125-1,.6875c6.1976,8.75953 11.68766,18.07022 16.34375,27.84375l1.09375-.53125c-4.68646-9.83524-10.19991-19.18475-16.4375-28zm16.4375,28c.14246.29897.26531.60642.40625.90625l7.96875-3.78125c-.13709-.29145-.26779-.58432-.40625-.875zm17.28125,61.0625c.035.32367.0916.64459.125.96875l8.75-.84375c-.0331-.32337-.059-.64584-.0937-.96875zm1,26.9375c-.0109.33393-.0187.66651-.0312,1l8.8125.1875c.0123-.33202.0206-.66757.0312-1zm-7.9687,48.6875c-.0968.321-.18285.64847-.28125.96875l8.4375,2.59375c.0984-.32019.18444-.64787.28125-.96875zm-.28125.96875-1.15625-.34375c-4.29292,13.96988-10.17003,27.24223-17.40625,39.625l1.0625.625c7.28617-12.46762 13.17868-25.841 17.5-39.90625zm-17.5,39.90625-.5.84375 7.5625,4.5 .5-.84375zm-.5.84375-1.0625-.625c-17.68267,29.9017-43.35283,54.51246-74.09375,70.875l.5625,1.0625c30.93924-16.47115 56.79594-41.21629 74.59375-71.3125zm-74.59375,71.3125c-.29661.15791-.57746.34362-.875.5l4.0625,7.75 .90625-.46875zm-.875.5-.59375-1.09375c-24.64518,12.94757-52.5006,20.6253-82.0625,21.5l.0312,1.21875c29.75799-.87997 57.81501-8.58567 82.625-21.625zm-82.625,21.625-1,.0312 .28125,8.78125 1-.0312zm-48.1563-4.65625c-.32566-.0743-.64373-.17407-.96875-.25l-2,8.5625c.32463.0758.64351.17581.96875.25zm-55.875-22.59375c-.27239-.16484-.54101-.33383-.8125-.5l-4.5625,7.5 .8125.5zm-24.125-17.34375-.75-.625-5.65625,6.71875c.24759.2106.47012.44684.71875.65625zm-.75-.625 .78125-.9375c-18.60136-15.83072-34.09015-35.19327-45.4375-57.0625l-1.0625.5625c11.41925,22.01233 26.99845,41.5024 45.71875,57.4375zm-45.71875-57.4375c-.15259-.29415-.31765-.57996-.46875-.875l-7.8125,4.03125 .46875.90625zm-.46875-.875 1.0625-.5625c-4.37491-8.54117-8.10487-17.45462-11.15625-26.6875l-1.125.375c3.0705,9.29193 6.81641,18.27887 11.21875,26.875zm-11.21875-26.875c-.10656-.32247-.20762-.64552-.3125-.96875l-8.375,2.78125c.10516.32372.20572.64576.3125.96875zm-8.21875-36.9375c-.0397-.33286-.087-.66662-.125-1l-8.75,1.09375c.0382.3337.0851.6668.125,1zm-.125-1 1.1875-.125c-.52746-4.62019-.90566-9.28479-1.09375-14l-1.1875.0625c.18921,4.73529.56443,9.42233 1.09375,14.0625zm-1.09375-14.0625c-.0133-.3333-.0197-.66626-.0312-1l-8.8125.34375c.0116.33218.018.66823.0312,1zm.8125-26.96875c.0335-.33347.0585-.66704.0937-1l-8.75-.90625c-.0353.33421-.0913.6653-.125,1zm.0937-1 1.1875.125c2.22541-21.00843 7.90181-40.99712 16.4375-59.375l-1.09375-.5c-8.58406,18.4913-14.2932,38.61518-16.53125,59.75zm16.53125-59.75c.14139-.30458.29454-.60254.4375-.90625l-8-3.6875c-.14702.31256-.29206.62406-.4375.9375zm30-45.84375 .65625-.75-6.625-5.78125-.65625.75zm38.59375,3.8125 .90625,1.0625c5.63957-4.81165 11.62655-9.22327 17.90625-13.21875l-.7812-1.21875c-6.33695,4.03168-12.34003,8.51974-18.03125,13.375zm18.0313-13.375c.28711-.18266.58666-.35037.875-.53125l-15.53125-24.03125c-.27985.17632-.56489.3535-.84375.53125zm65.4375-23.6875c.33119-.0423.66818-.0535 1-.0937l-3.5-28.375-1,.125zm52.0625,1.8125c.32193.0642.64752.12136.96875.1875l5.71875-28c-.33203-.0682-.66734-.12108-1-.1875zm.96875.1875-.28125,1.40625c6.46739,1.33137 12.78315,3.06522 18.9375,5.15625l.46875-1.34375c-6.21031-2.11047-12.599-3.87505-19.125-5.21875zm20.09375,5.5625-.46875,1.34375c6.20584,2.15355 12.23317,4.68838 18.0625,7.5625l.625-1.3125c-5.87662-2.89711-11.96316-5.4224-18.21875-7.59375zm18.21875,7.59375c.29382.14485.5822.29091.875.4375l12.6875-25.625-.875-.4375zm.875.4375-.625,1.3125c5.78654,2.89789 11.39314,6.13062 16.75,9.6875l.78125-1.15625c-5.41704-3.59796-11.05388-6.91372-16.90625-9.84375zm16.90625,9.84375c.27718.1841.56778.34547.84375.53125l15.90625-23.75c-.27267-.18344-.53882-.38045-.8125-.5625zm.84375.53125-.8125,1.1875c15.77066,10.61198 29.52439,23.97739 40.59375,39.40625l1.1875-.84375c-11.16755-15.56914-25.05826-29.03933-40.96875-39.75zm40.96875,39.75c.19229.26807.37183.54319.5625.8125l23.375-16.46875c-.19062-.26942-.37051-.54413-.5625-.8125zm.5625.8125-1.15625.84375c5.20099,7.34702 9.77589,15.14807 13.6875,23.34375l1.3125-.59375c-3.95058-8.27939-8.58922-16.17221-13.84375-23.59375zm13.84375,23.59375c.1401.29361.29914.5804.4375.875l25.84375-12.21875-.40625-.875zm14.59375,51.125c.0368.33258.059.66681.0937,1l28.46875-2.71875c-.0344-.33451-.0888-.66601-.125-1zm.0937,1-1.4375.125c.57448,5.49535.875,11.07121.875,16.71875 0,1.88473-.0599,3.75614-.125,5.625l1.4375.0312c.0654-1.88165.125-3.75867.125-5.65625 0-5.68595-.2976-11.31049-.875-16.84375zm.75,22.5c-.0116.33257-.0177.66794-.0312,1l28.59375.625c.0127-.33351.0203-.66605.0312-1zm-.0312,1-1.4375-.0312c-.55668,13.57656-2.80812,26.69779-6.5625,39.1875l1.375.40625c3.78746-12.60253 6.06479-25.86456 6.625-39.5625zm-6.625,39.5625c-.0969.32231-.18242.6473-.28125.96875l27.34375,8.40625c.0991-.32233.18388-.64569.28125-.96875zm-.28125.96875-1.375-.40625c-3.58023,11.63998-8.45665,22.73207-14.46875,33.0625l1.21875.71875c6.07779-10.43807 11.00842-21.61231 14.625-33.375zm-14.625,33.375c-.16869.28972-.32955.58644-.5.875l24.5625,14.625c.16625-.28113.33517-.56168.5-.84375zm-63.3125,61.03125c-.29964.15989-.60547.31071-.90625.46875l13.28125,25.34375 .90625-.46875zm-.90625.46875-.65625-1.28125c-20.74296,10.89972-44.1791,17.33104-69.0625,18.0625l.03125,1.4375c25.10266-.73736 48.75837-7.22185 69.6875-18.21875zm-69.6875,18.21875-1,.0312 .875,28.625 1.03125-.0312zm-1,.0312-.0312-1.4375c-1.2495.029-2.49352.0625-3.75.0625-12.14533,0-23.9795-1.35785-35.34375-3.9375l-.34375,1.40625c11.47654,2.60838 23.42201,3.96875 35.6875,3.96875 1.26853,0 2.51975-.0332 3.78125-.0625zm-39.46875-3.90625c-.32286-.0734-.64664-.14343-.96875-.21875l-6.46875,27.875c.32285.0753.64527.14506.96875.21875zm-.96875-.21875 .34375-1.40625c-16.36378-3.82283-31.73403-10.18057-45.71875-18.625l-.75,1.21875c14.10574,8.5193 29.62142,14.95325 46.125,18.8125zm-46.125-18.8125c-.27924-.16865-.56563-.3297-.84375-.5l-14.875,24.4375c.28277.17303.56.35967.84375.53125zm-20.4375-14.6562c-.24848-.20923-.50281-.41429-.75-.625l-18.4375,21.875c.2525.21489.49636.44267.75.65625zm-.75-.625 .90625-1.09375c-15.58506-13.28966-28.57686-29.5683-38.09375-47.90625l-1.28125.65625c9.60889,18.51467 22.73053,34.92806 38.46875,48.34375zm-38.46875-48.34375c-.15241-.29366-.31811-.58028-.46875-.875l-25.40625,13.15625c.15063.29407.31663.58182.46875.875zm-.46875-.875 1.28125-.65625c-3.64562-7.13353-6.76377-14.57457-9.3125-22.28125l-1.34375.4375c2.57338,7.78281 5.69288,15.29613 9.375,22.5zm-9.375-22.5c-.10634-.32161-.20814-.64624-.3125-.96875l-27.1875,8.96875c.10422.32117.20661.64833.3125.96875zm-6.96875-31.28125c-.0395-.333-.0875-.66638-.125-1l-28.375,3.5625c.0381.33343.0852.6671.125,1zm-.99995-13.53125 1.4375-.0625c-.0622-1.82774-.125-3.65709-.125-5.5 0-5.42226.25115-10.77999.78125-16.0625l-1.4375-.15625c-.53508,5.33015-.78125,10.74775-.78125,16.21875 0,1.86617.0617,3.71172.125,5.5625zm.6562-21.78125c.0325-.32404.0905-.64528.125-.96875l-28.46875-2.9375c-.0353.33301-.0602.66648-.0937,1zm.125-.96875 1.4375.125c1.8854-17.6658 6.68502-34.45482 13.875-49.90625l-1.3125-.59375c-7.25794,15.59849-12.10044,32.54222-14,50.375zm14-50.375c.14342-.30824.26093-.63032.40625-.9375l-26.03125-11.9375c-.14517.30817-.2627.62842-.40625.9375zm25.3125-38.625 .65625-.75-21.53125-18.875-.65625.75zm.65625-.75 1.09375.9375c4.54163-5.06957 9.41117-9.86159 14.5625-14.3125l-.9375-1.09375c-5.2125,4.50289-10.12469,9.33839-14.71875,14.46875zm15.65625-13.375 8.34375,9.65625c.25194-.21764.49657-.44031.75-.65625l-8.34375-9.65625-.75.65625zm25.5625-3.15625 .84375-.53125-6.90625-10.71875-.84375.53125zm.84375-.53125 .875,1.3125c17.22587-10.76675 36.89213-18.0127 57.96875-20.71875l-.1875-1.5625c-21.33698,2.73645-41.2229,10.05738-58.65625,20.96875zm58.65625-20.96875 1-.125-1.5625-12.65625c-.33118.0402-.66945.0515-1,.0937zm1-.125 .1875,1.5625c5.77123-.70018 11.6335-1.0625 17.59375-1.0625 9.69952,0 19.17989.96116 28.34375,2.78125l.34375-1.5625c-9.27476-1.84547-18.87085-2.8125-28.6875-2.8125-6.0187,0-11.95313.38691-17.78125,1.09375zm46.46875,1.71875c.33211.0661.66871.11917 1,.1875l2.53125-12.5c-.33081-.0681-.66844-.12146-1-.1875zm1,.1875-.34375,1.5625c5.81846,1.1983 11.49127,2.75075 17.03125,4.625l.5-1.5c-5.59158-1.89239-11.31564-3.47644-17.1875-4.6875zm17.625,6.53125c5.67543,1.96415 11.20168,4.24878 16.53125,6.875l.6875-1.40625c-5.38149-2.65243-10.95754-4.98408-16.6875-6.96875zm.53125-1.5 4.28125-12.03125-.96875-.34375-4.25,12.03125c.31591.10699.62257.23467.9375.34375zm17.5625,7.40625-.6875,1.40625c5.2224,2.61744 10.25629,5.54227 15.09375,8.75l.875-1.3125c-4.89839-3.24938-9.9927-6.19307-15.28125-8.84375zm53.40625,45.5625c.19215.2675.37212.54366.5625.8125l10.4375-7.34375-.59375-.8125zm.5625.8125-1.28125.90625c4.72032,6.66852 8.88467,13.78128 12.4375,21.21875l1.46875-.6875c-3.59641-7.5277-7.84565-14.68843-12.625-21.4375zm12.625,21.4375c.14257.29841.26565.60673.40625.90625l11.53125-5.4375c-.14209-.30262-.29356-.60467-.4375-.90625zm.40625.90625-1.4375.6875c6.53883,13.9381 10.89748,29.09294 12.6875,45.03125l1.59375-.15625c-1.80907-16.1266-6.22346-31.45902-12.84375-45.5625zm12.84375,45.5625c.0361.32215.091.64597.125.96875l12.6875-1.21875c-.0337-.32248-.0581-.64685-.0937-.96875zm.125.96875-1.59375.15625c.53205,5.04439.8125,10.15805.8125,15.34375 0,1.79346-.0603,3.5661-.125,5.34375l1.59375.0312c.0644-1.78192.125-3.57738.125-5.375 0-5.23791-.27511-10.40439-.8125-15.5zm.6875,20.875c-.012.33342-.017.66716-.0312,1l12.75.25c.0136-.33162.0197-.66786.0312-1zm-.0312,1-1.59375-.0312c-.52722,12.20083-2.53942,24.01559-5.90625,35.25l1.5.46875c3.41344-11.37795 5.47011-23.32929 6-35.6875zm-6,35.6875c-.0969.32301-.18217.64668-.28125.96875l12.1875,3.75c.0987-.321.1845-.64689.28125-.96875zm-13.53125,31.21875c-.16809.28948-.32999.58679-.5.875l10.9375,6.53125c.17008-.28804.36294-.55455.53125-.84375zm-.5.875-1.375-.8125c-13.49569,22.89852-33.09659,41.72787-56.59375,54.28125l.71875,1.40625c23.76044-12.68499 43.5975-31.73072 57.25-54.875zm-57.25,54.875c-.27952.14923-.56315.29004-.84375.4375l5.90625,11.3125c.29207-.15348.584-.31351.875-.46875zm-.84375.4375-.75-1.375c-18.86814,9.91439-40.20809,15.77234-62.84375,16.4375l.0312,1.5625c22.89818-.66736 44.47327-6.59324 63.5625-16.625zm-63.5625,16.625-1,.0312 .40625,12.75 1-.0312zm-1,.0312-.0312-1.5625c-1.10571.0249-2.20078.0625-3.3125.0625-11.03161,0-21.76978-1.25414-32.09375-3.59375l-.375,1.53125c10.44575,2.37014 21.30636,3.625 32.46875,3.625 1.11551,0 2.23421-.0376 3.34375-.0625zm-35.8125-3.5625-.9375-.21875-2.90625,12.4375c.322.0752.646.14549.96875.21875zm-61.625-30.6875c-.24952-.21008-.50191-.41328-.75-.625l-8.21875,9.75 .75.625zm-.75-.625 1.03125-1.1875c-14.18258-12.09789-25.9982-26.87046-34.6563-43.56245l-1.375.71875c8.74765,16.86532 20.67275,31.80459 35,44.03125zm-35-44.03125c-.15003-.28925-.28935-.58463-.4375-.875l-11.34375,5.875c.15042.29434.31655.58173.46875.875zm-.4375-.875 1.375-.71875c-3.2964-6.46179-6.12961-13.20969-8.4375-20.1875l-1.46875.5c2.33264,7.05024 5.20014,13.87712 8.53125,20.40625zm-15-50 1.5625-.21875c-.37336-3.36284-.64255-6.75913-.78125-10.1875l-1.5625.0625c.14054,3.4842.40091,6.92648.78125,10.34375zm-.81245-11.34375 1.5625-.0625c-.0553-1.64346-.0937-3.28058-.0937-4.9375 0-4.92763.2375-9.7931.71875-14.59375l-1.53125-.15625c-.48676,4.85385-.75,9.76803-.75,14.75 0,1.67127.0381,3.34227.0937,5zm13.49995-66.65625c.14561-.31254.28975-.62617.4375-.9375l-11.56255-5.2812c-.14293.30215-.29642.60306-.4375.90625zm23.125-35.1875 .65625-.75-9.59375-8.40625-.65625.75zm.65625-.75 1.1875,1.03125c4.11282-4.57843 8.49585-8.91542 13.15625-12.9375l-1.03125-1.15625c-4.70641,4.06569-9.15892,8.43534-13.3125,13.0625zm14.3437-11.9062 15.65625,18.09375c.24582-.212.50246-.41495.75-.625l-15.65625-18.09375c-.24709.21038-.50434.41299-.75.625zm16.40625,17.46875 1.25,1.4375c4.21617-3.57757 8.68337-6.8749 13.375-9.84375l-1.03125-1.625c-4.77157,3.0193-9.30577,6.39265-13.59375,10.03125zm13.59375-10.03125 .875-.53125-12.96875-20.09375c-.28806.18005-.55705.38049-.84375.5625zm48.8125-17.625 1-.125-2.9375-23.71875-1,.125zm39.25,1.3125c.33422.0663.66678.11848 1,.1875l4.75-23.4375c-.33061-.0681-.66857-.12167-1-.1875zm29.65625,10.0625c.2917.1437.58463.29152.875.4375l10.59375-21.46875-.875-.4375zm.875.4375-.84375,1.6875c4.20859,2.11497 8.25228,4.48029 12.15625,7.0625l1.0625-1.59375c-3.96494-2.62314-8.10091-5.00745-12.375-7.15625zm13.21875,7.71875-1.0625,1.5625c11.67503,7.86452 21.86606,17.78463 30.09375,29.1875l1.5625-1.09375c-8.36516-11.60286-18.71807-21.65536-30.59375-29.65625zm30.59375,29.65625c.1917.2659.40417.51373.59375.78125l19.5625-13.75-.59375-.8125zm10.96875,18.46875c.1445.30185.29544.60302.4375.90625l21.625-10.21875c-.1425-.30376-.29295-.60365-.4375-.90625zm.4375.90625-1.71875.8125c5.28686,11.29148 8.84455,23.5466 10.34375,36.4375l1.90625-.1875c-1.52188-13.11557-5.14951-25.575-10.53125-37.0625zm10.53125,37.0625c.0386.33246.0579.66672.0937,1l23.81255-2.28125c-.0343-.32504-.0886-.64435-.125-.96875zm.0937,1-1.90625.1875c.45543,4.22806.71875,8.52575.71875,12.875 0,1.61084-.0303,3.21726-.0937,4.8125l1.90625.0312c.0632-1.60444.0937-3.22384.0937-4.84375 0-4.41312-.25698-8.77201-.71875-13.0625zm.625,17.90625c-.0131.33371-.0466.66699-.0625,1l23.90625.5c.0143-.33204.0191-.66738.0312-1zm-.0625,1-1.90625-.0312c-.46964,9.76544-2.0932,19.21166-4.78125,28.21875l1.78125.53125c2.7355-9.16785 4.43295-18.78016 4.90625-28.71875zm-4.90625,28.71875c-.0982.32917-.18031.67201-.28125,1l22.875,7c.0997-.32419.21505-.64359.3125-.96875zm-.28125,1-1.8125-.5625c-2.62627,8.52894-6.18683,16.66031-10.5625,24.25l1.625.96875c4.45282-7.72247 8.07921-15.97833 10.75-24.65625zm-10.74995,24.65625c-.17323.30043-.32427.60746-.5.90625l20.53125,12.21875c.1688-.2864.36437-.55609.53125-.84375zm-47.65625,46.25c-.28727.15406-.58634.2857-.875.4375l11.09375,21.1875c.29219-.15353.584-.31328.875-.46875zm-.875.4375-.90625-1.6875c-15.50964,8.14364-33.05055,12.96134-51.65625,13.5l.0625,1.9375c18.91936-.54757 36.73025-5.457 52.5-13.75zm-52.5,13.75-1,.0312 .75,23.875 1-.0312zm-1,.0312-.0625-1.9375c-.83275.0172-1.66312.0312-2.5.0312-9.0363,0-17.82327-.99549-26.28125-2.90625l-.4375,1.875c8.59732,1.94442 17.53509,2.96875 26.71875,2.96875 .85399,0 1.71274-.0136 2.5625-.0312zm-29.28125-2.93745-.9375-.21875-5.40625,23.28125c.32209.0753.64583.14557.96875.21875zm-.9375-.21875 .4375-1.875c-12.13326-2.84519-23.55518-7.56499-33.9375-13.8125l-1,1.65625c10.55468,6.35399 22.16756,11.13787 34.5,14.03125zm-34.5-14.03125-.84375-.5-12.4375,20.40625c.28425.17413.55821.35904.84375.53125zm-15.53125-11.09375c-.24236-.204-.47803-.41914-.71875-.625l-15.40625,18.28125c.2409.20549.47649.42107.71875.625zm-29.96875-37.78125 1.71875-.875c-2.6682-5.25091-4.96917-10.74128-6.84375-16.40625l-1.84375.625c1.909,5.76444 4.25084,11.31322 6.96875,16.65625zm-6.96875-16.65625c-.10696-.32296-.20821-.64459-.3125-.96875l-22.71875,7.5c.10141.31386.209.62458.3125.9375zm-5.25-23.78125c-.0391-.33355-.0887-.66563-.125-1l-23.71875,2.9375c.037.3337.0544.66699.0937,1zm-.125-1 1.9375-.25c-.28596-2.64179-.51511-5.3091-.625-8l-1.9375.0625c.11221,2.75565.3309,5.48239.625,8.1875zm-.625-8.1875c-.0136-.33318-.0204-.66613-.0312-1l-23.875.9375c.0112.33285.0178.66773.0312,1zm-.0312-1 1.9375-.0625c-.0426-1.30763-.0625-2.6195-.0625-3.9375 0-4.02632.20269-8.01429.59375-11.9375l-1.9375-.21875c-.39982,3.99633-.59375,8.05473-.59375,12.15625 0,1.33592.0194,2.67453.0625,4zm.53125-16.15625c.0324-.32427.09-.64524.125-.96875l-23.7813-2.46875c-.0359.33471-.0914.66461-.125,1zm10.7187-38.875c.14587-.31189.28904-.62707.4375-.9375l-21.75-9.96875c-.14796.31155-.29171.62473-.4375.9375zm19.09375-29.03125c.21863-.2463.43564-.50551.65625-.75l-17.96875-15.75-.65625.75zm12.75-9.90625 1.5,1.75c.24662-.21283.50158-.41421.75-.625l-1.5-1.75c-.24732.20986-.50443.41316-.75.625zm15.375-8.53125c.28717-.18171.58614-.35199.875-.53125l-1.25-1.9375c-.28841.17907-.58824.34979-.875.53125zm.875-.53125 1.0625,1.6875c13.5046-8.37505 28.86538-14.04732 45.34375-16.1875l-.25-1.96875c-16.77072,2.1792-32.4099,7.93796-46.15625,16.46875zm46.15625-16.46875 1-.125-.28125-2.28125-1,.125zm1-.125 .25,2c4.5551-.55103 9.20227-.84375 13.90625-.84375 7.65185,0 15.11264.75622 22.34375,2.1875l.40625-1.96875c-7.3568-1.45731-14.9663-2.21875-22.75-2.21875-4.78844,0-9.51904.28189-14.15625.84375zm36.90625,1.375 1,.21875 .46875-2.28125c-.33255-.0689-.66644-.1214-1-.1875zm28.625,9.71875c.29268.14412.58371.291.875.4375l1.03125-2.09375c-.28994-.1457-.58371-.29411-.875-.4375zm12.78125,7.3125c.28081.18568.56465.37446.84375.5625l1.28125-1.9375c-.27724-.18675-.56486-.34678-.84375-.53125zm30.3125,29.15625c.19057.26401.40534.51558.59375.78125l1.90625-1.34375c-.18891-.2664-.40271-.51648-.59375-.78125zm.59375.78125-1.625,1.15625c3.73417,5.26897 7.06184,10.87379 9.875,16.75l1.78125-.84375c-2.869-5.99329-6.22073-11.68941-10.03125-17.0625zm10.03125,17.0625c.14427.30138.29575.60344.4375.90625l2.09375-1c-.14175-.30274-.29328-.60491-.4375-.90625zm.4375.90625-1.8125.84375c5.07787,10.85077 8.51905,22.61624 9.96875,35l1.96875-.1875c-1.47312-12.60854-4.9526-24.60682-10.125-35.65625zm10.125,35.65625c.0388.33199.089.66716.125,1l2.28125-.21875c-.0361-.33485-.0549-.66599-.0937-1zm.71875,18.40625c-.0133.33197-.0464.66875-.0625,1 2.82082-.0612 3.04481-.9194.0625-1zm-4.75,28.59375c-.0967.32415-.21301.64579-.3125.96875l2.21875.6875c.10039-.32601.21485-.64155.3125-.96875zm-10.65625,24.71875c-.17102.2967-.3577.57995-.53125.875l2,1.1875c.17361-.29518.36013-.57819.53125-.875zm-.53125.875-1.6875-1c-10.64783,18.11006-26.13596,33.04444-44.6875,43l.90625,1.75c18.87983-10.13094 34.62886-25.32177 45.46875-43.75zm-45.46875,43.75-.875.46875 1.0625,2.0625c.29394-.15434.58252-.31203.875-.46875zm-.875.46875-.9375-1.75c-14.95133,7.8512-31.84412,12.48277-49.78125,13l.0625,2c18.24426-.53 35.44502-5.25562 50.65625-13.25zm-50.65625,13.25-1,.0312 .0625,2.3125 1-.0312zm-29.1875-2.7813-.9375-.21875-.53125,2.25005 .9375.21875zm-34.1875-13.75c-.28472-.17129-.56062-.3576-.84375-.53125l-1.21875,2 .84375.5zm-.84375-.53125 1.03125-1.65625c-4.90045-3.00298-9.52934-6.37905-13.90625-10.0625l-1.28125,1.53125c4.44214,3.73753 9.18471,7.1384 14.15625,10.1875zm-14.15625-10.1875c-.24931-.20977-.50248-.41319-.75-.625l-1.5,1.75c.25153.2152.49665.44312.75.65625zm-.75-.625 1.28125-1.53125c-11.14852-9.54487-20.4316-21.20225-27.25-34.34375l-1.78125.90625c6.94516,13.38404 16.39187,25.24924 27.75,34.96875zm-35.1875-52.875 1.875-.625c-2.23129-6.94881-3.81859-14.16752-4.6875-21.625l-1.96875.25c.88614,7.58452 2.50884,14.93196 4.78125,22zm-4.78125-22c-.0388-.33199-.089-.66716-.125-1l-2.28125.28125c.0364.336.0858.66485.125,1zm-.125-1 1.96875-.25c-.27209-2.52837-.45773-5.08125-.5625-7.65625l-2,.0937c.10754,2.62757.31479,5.23256.59375,7.8125zm-.59375-7.8125c-.0136-.33147-.0205-.66782-.0312-1l-2.3125.0937c.0108.33198.0177.66871.0312,1zm-.0312-1 2-.0625c-.0405-1.25132-.0625-2.52008-.0625-3.78125 0-3.8771.18623-7.72211.5625-11.5l-2-.21875c-.3852,3.85354-.5625,7.76402-.5625,11.71875 0,1.28738.021,2.56643.0625,3.84375zm.5-15.5625c.0323-.32342.09-.64611.125-.96875l-2.28125-.25c-.0362.33459-.0916.66458-.125,1zm.125-.96875 2,.1875c1.38011-12.72369 4.83108-24.81473 10.03125-35.9375l-1.81255-.8437c-5.29462,11.32107-8.81528,23.64585-10.21875,36.59375zm10.2187-36.5937c.14165-.30287.29333-.60481.4375-.90625l-2.09375-.96875c-.14405.30144-.29593.60342-.4375.90625zm.4375-.90625 1.8125.84375c4.64695-9.71294 10.61745-18.66324 17.6875-26.625l-1.5-1.3125c-7.1953,8.10547-13.27173,17.20739-18,27.09375zm18-27.09375 .65625-.75-1.75-1.53125c-.22385.24805-.43447.50006-.65625.75zm.65625-.75 1.5,1.3125c3.18835-3.52845 6.61783-6.86055 10.21875-9.96875l-1.3125-1.53125c-3.67881,3.17475-7.15031,6.58205-10.40625,10.1875zm11.71875-8.65625 21.75,25.125c.25175-.21678.49558-.44252.75-.65625l-21.75-25.125c-.25323.21478-.49867.43931-.75.65625zm22.5,24.46875 1.875,2.15625c2.78713-2.33964 5.74578-4.46771 8.84375-6.40625l-1.5625-2.40625c-3.20397,2.00862-6.27282,4.23396-9.15625,6.65625zm9.15625-6.65625c.28515-.17877.55624-.38719.84375-.5625l-18-27.90625-.84375.53125zm33.25-11.78125 .375,2.875c3.10372-.37324 6.26393-.59375 9.46875-.59375 5.18358,0 10.25472.5099 15.15625,1.46875l.5625-2.8125c-5.08723-.99749-10.34039-1.53125-15.71875-1.53125-3.33272,0-6.61579.20373-9.84375.59375zm25.5625.9375c.33249.0652.66897.11826 1,.1875l6.625-32.5625c-.33126-.0686-.6677-.12173-1-.1875zm8.5,5.1875-2.78125,7.78125c.32762.10518.64324.23389.96875.34375l2.78125-7.8125c-.32057-.10864-.64633-.20791-.96875-.3125zm.96875.3125c3.19741,1.08359 6.31571,2.3426 9.3125,3.8125l1.25-2.5625c-3.10533-1.52447-6.31253-2.84432-9.625-3.96875zm10.5625,1.25c.30533.14989.60308.31515.90625.46875l14.71875-29.8125c-.2974-.14958-.60737-.29044-.90625-.4375zm30.53125,25.96875-2.34375,1.65625c2.54633,3.58568 4.82703,7.37697 6.75,11.375l2.59375-1.21875c-1.99728-4.14716-4.3554-8.09281-7-11.8125zm7,11.8125c.14315.29723.26663.60703.40625.90625l30.03125-14.1875c-.1416-.30257-.26209-.60513-.40625-.90625zm.40625.90625-2.59375,1.25c3.32192,7.14474 5.5889,14.8805 6.625,23l2.90625-.28125c-1.07408-8.46682-3.46261-16.5216-6.9375-23.96875zm6.9375,23.96875c.0423.33375.0867.665.125,1l33.03125-3.15625c-.0361-.33348-.0548-.66739-.0937-1zm.5,15.3125-2.90625-.0625c-.36935,5.94458-1.41126,11.70617-3.03125,17.21875l2.75.84375c1.70081-5.76549 2.80964-11.78026 3.1875-18zm-3.1875,18c-.0982.33279-.17894.669-.28125,1l31.75,9.71875c.0992-.32235.1848-.64519.28125-.96875zm-7.21875,17.03125c-.16818.29619-.35948.58114-.53125.875l28.5625,17.03125c.16881-.28712.33363-.58628.5-.875zm-.53125.875-2.46875-1.46875c-7.23804,12.41604-17.75182,22.66943-30.40625,29.53125l1.34375,2.53125c13.10525-7.10737 24.02082-17.7454 31.53125-30.59375zm-31.53125,30.59375c-.30753.16678-.6276.30584-.9375.46875l15.4375,29.4375 .90625-.46875zm-.9375.46875-1.34375-2.53125c-10.24096,5.37703-21.80476,8.58732-34.09375,8.9375l.0937,2.875c12.7388-.36646 24.7212-3.69705 35.34375-9.28125zm-35.34375,9.28125c-.3324.01-.66662-.006-1,0l1,33.1875 1-.0312zm-20.15625-1.9375c-.32306-.0722-.64715-.14271-.96875-.21875l-7.5,32.34375c.32085.0753.64686.14617.96875.21875zm-.96875-.21875 .65625-2.8125c-7.86597-1.8588-15.28167-4.87612-22.03125-8.90625l-1.5,2.4375c7.01253,4.19322 14.70339,7.34908 22.875,9.28125zm-22.875-9.28125c-.27727-.1658-.53738-.36225-.8125-.53125l-17.3125,28.40625c.27817.17046.56401.33185.84375.5zm-10.59375-7.5625c-.25319-.21268-.49945-.44056-.75-.65625l-21.4375,25.40625 .75.625zm-.75-.65625 1.84375-2.1875c-7.55298-6.50872-13.83771-14.41351-18.46875-23.34375l-2.5625,1.3125c4.80926,9.2569 11.34936,17.47104 19.1875,24.21875zm-19.1875-24.21875c-.1507-.29006-.29021-.58291-.4375-.875l-29.53125,15.28125c.14998.29533.31629.58115.46875.875zm-.4375-.875 2.53125-1.34375c-1.68529-3.35624-3.11619-6.8582-4.3125-10.46875l-2.75.90625c1.25111,3.76754 2.76605,7.40563 4.53125,10.90625zm-4.875-11.875 2.75-.90625c-1.50443-4.74952-2.54789-9.68773-3.125-14.78125l-2.90625.34375c.60194,5.28721 1.71352,10.4135 3.28125,15.34375zm-3.28125-15.34375c-.0381-.335-.091-.66378-.125-1l-32.9375,4.125c.036.33465.0861.66622.125,1zm-.125-1 2.90625-.34375c-.15186-1.5145-.27924-3.05506-.34375-4.59375l-2.90625.125c.0679,1.61573.18273,3.22242.34375,4.8125zm-.34375-4.8125c-.0135-.3211-.0215-.6467-.0312-.96875l-33.15625,1.28125c.0104.32313.0181.6463.0312.96875zm-.0312-.96875 2.90625-.125c-.0233-.78718-.0312-1.58215-.0312-2.375 0-2.63229.1219-5.2471.375-7.8125l-2.875-.3125c-.26539,2.6712-.40625,5.38411-.40625,8.125 0,.83697.006,1.66909.0312,2.5zm.375-10.625c.0322-.32444.0577-.64544.0937-.96875l-33-3.40625c-.0362.33387-.0917.66527-.125,1zm.0937-.96875 2.90625.3125c.97009-8.71974 3.34899-17.0109 6.9375-24.625l-2.59375-1.1875c-3.72385,7.89182-6.24281,16.46569-7.25,25.5zm7.25-25.5 .4375-.90625-30.21875-13.84375c-.14599.30514-.29414.59962-.4375.90625zm13.59375-20.25 2.125,1.875c2.09272-2.28323 4.33987-4.41565 6.6875-6.4375l-1.875-2.15625c-2.44182,2.10262-4.76127,4.34388-6.9375,6.71875zm8.8125-4.5625 5.4375,6.28125c.25188-.21669.49503-.44309.75-.65625l-5.4375-6.28125c-.25423.21341-.49854.43969-.75.65625zm14.09375-.0937c.28258-.17619.55851-.35899.84375-.53125l-4.5-6.96875c-.28407.17276-.56207.35499-.84375.53125zm.84375-.53125 1.8125,2.8125c7.57886-4.55502 16.16225-7.633 25.3125-8.875l-.40625-3.3438c-9.67178,1.30669-18.713,4.57148-26.71875,9.40625zm26.71875-9.4063c.33037-.0446.66819-.085 1-.125l-1-8.21875-1,.125zm22.96875.65625 1,.21875 1.65625-8.125-1-.21875zm1,.21875-.6875,3.28125c2.21594.4653 4.37129,1.03982 6.5,1.71875l1.125-3.1875c-2.26265-.72643-4.58128-1.31637-6.9375-1.8125zm5.8125,5-2.5625,7.25c.32979.10388.64148.23426.96875.34375l2.5625-7.28125c-.3229-.10851-.64366-.20882-.96875-.3125zm.96875.3125c2.75827.9269 5.44783,2.01718 8.03125,3.28125l1.5-3c-2.70859-1.32889-5.51513-2.46176-8.40625-3.4375zm9.53125.28125c.3044.14935.60435.31514.90625.46875l3.65625-7.4375c-.29489-.14932-.57798-.32307-.875-.46875zm.90625.46875-1.5,3c2.15306,1.09487 4.2399,2.31118 6.25,3.625l1.84375-2.8125c-2.11862-1.38623-4.32438-2.65781-6.59375-3.8125zm7.4375,4.375-1.84375,2.78125c6.37791,4.30696 11.95366,9.70933 16.5,15.90625l2.75-1.9375c-4.79075-6.53821-10.67993-12.20875-17.40625-16.75zm17.40625,16.75c.19762.2697.39992.53989.59375.8125l6.78125-4.78125-.59375-.8125zm.59375.8125-2.75,1.9375c2.16122,3.04027 4.08415,6.26682 5.71875,9.65625l3.03125-1.4375c-1.71771-3.55837-3.72964-6.96322-6-10.15625zm6.4375,11.0625-3.0625,1.4375c2.7647,5.95875 4.66094,12.39779 5.5625,19.15625l3.375-.34375c-.94318-7.14887-2.94433-13.94796-5.875-20.25zm5.875,20.25c.0436.33065.086.66792.125,1l8.25-.78125c-.0385-.33596-.0823-.66534-.125-1zm.125,1-3.375.34375c.30699,2.59918.5,5.22383.5,7.90625 0,1.23812-.0586,2.46604-.125,3.6875l3.40625.0625c.0659-1.24578.0937-2.48791.0937-3.75 0-2.79291-.18205-5.54225-.5-8.25zm.40625,12c-.0178.33548-.0713.66578-.0937,1l8.3125.1875c.0207-.3332.046-.66569.0625-1zm-2.75,15.96875c-.0976.33353-.17882.66855-.28125,1l7.9375,2.4375c.10178-.33002.18372-.66813.28125-1zm-.28125,1-3.21875-1c-1.39658,4.52742-3.25476,8.84754-5.53125,12.90625l2.875,1.6875c2.40864-4.28026 4.39918-8.81825 5.875-13.59375zm-5.875,13.59375-.5.875 7.125,4.25c.16948-.29072.33417-.58191.5-.875zm-28.5625,27.78125-1.5625-2.96875c-8.72531,4.58033-18.5883,7.26835-29.0625,7.5625l.125,3.375c10.98731-.31523 21.33918-3.15121 30.5-7.96875zm-30.5,7.96875c-.33426.01-.66459.0264-1,.0312l.25,8.28125c.33301-.005.66801.009 1,0zm-17.28125-1.62505c-.32228-.07154-.64815-.14268-.96875-.2187l-1.875,8.0625c.3229.0763.64432.14645.96875.21875zm-.96875-.2187 .75-3.28125c-6.63849-1.57411-12.88871-4.14023-18.59375-7.53125l-1.75,2.875c6.01434,3.58429 12.5947,6.2779 19.59375,7.9375zm-19.59375-7.9375-.84375-.5-4.3125,7.09375 .84375.5zm-.84375-.5 1.75-2.875c-2.79942-1.72013-5.46286-3.64834-7.96875-5.75l-2.15625,2.5625c2.63514,2.2118 5.43151,4.25205 8.375,6.0625zm-9.125-6.71875 2.15625-2.5625c-6.39164-5.52519-11.69944-12.24643-15.625-19.8125l-3,1.5625c4.13102,7.94672 9.74871,15.00728 16.46875,20.8125zm-16.46875-20.8125c-.15198-.29235-.32079-.58026-.46875-.875l-7.34375,3.78125c.15255.30379.31239.60473.46875.90625zm-4.28125-10.15625c-.10847-.32628-.23997-.64037-.34375-.96875l-7.84375,2.59375c.10345.3266.23616.64402.34375.96875zm-.34375-.96875 3.21875-1.0625c-1.27014-4.03479-2.17183-8.23684-2.65625-12.5625l-3.34375.40625c.51208,4.54942 1.43981,8.97439 2.78125,13.21875zm-2.78125-13.21875c-.0374-.33216-.0923-.66646-.125-1l-8.1875,1.03125c.0338.33689.087.66438.125,1zm-.125-1 3.34375-.40625c-.11544-1.19309-.1669-2.38307-.21875-3.59375l-3.375.125c.0557,1.29978.12437,2.59439.25,3.875zm-.25-3.875c-.0138-.32269-.0218-.64496-.0312-.96875l-8.28125.3125c.01.32543.0177.64433.0312.96875zm.2813-10c.0319-.32233.0575-.64772.0937-.96875l-8.21875-.84375c-.0361.32441-.0929.64315-.125.96875zm6.3437-23c.14375-.30296.28955-.60569.4375-.90625l-7.53125-3.4375c-.14684.30142-.29443.60268-.4375.90625zm.4375-.90625 3.09375,1.40625c2.70466-5.48479 6.11558-10.55722 10.15625-15.0625l-2.53125-2.21875c-4.25649,4.74867-7.87352,10.09498-10.71875,15.875zm10.71875-15.875 .6875-.75-6.25-5.46875c-.22425.24467-.43508.50249-.65625.75zm.6875-.75 2.53125,2.21875c1.73614-1.87758 3.59135-3.64463 5.53125-5.3125l-2.1875-2.53125c-2.05498,1.7679-4.03746,3.63351-5.875,5.625zm13.875,2.09375 2.625,3.03125c1.95165-1.61559 4.02231-3.10023 6.1875-4.4375l-2.15625-3.375c-2.3299,1.4444-4.55689,3.03654-6.65625,4.78125zm29.5625-13.0625c.33049-.0455.66779-.085 1-.125l-.9375-7.625-1,.125zm1-.125 .5,4c2.17446-.26087 4.37973-.40625 6.625-.40625 3.59126,0 7.10153.34422 10.5,1l.78125-3.9375c-3.64943-.70667-7.4264-1.09375-11.28125-1.09375-2.4111,0-4.78934.15611-7.125.4375zm24.5,6.40625c2.32789.77356 4.57236,1.68561 6.75,2.75l1.78125-3.625c-2.31168-1.1315-4.7186-2.08023-7.1875-2.90625zm8.53125-.875c.30678.15016.60248.31345.90625.46875l3.40625-6.90625c-.30355-.15436-.60003-.31892-.90625-.46875zm.90625.46875-1.78125,3.59375c1.69163.86563 3.32196,1.84493 4.90625,2.875l2.21875-3.34375c-1.72407-1.12337-3.50156-2.1832-5.34375-3.125zm6.1875,3.65625-2.21875,3.34375c5.17953,3.50387 9.754,7.88679 13.46875,12.90625l3.28125-2.3125c-4.0095-5.43302-8.92913-10.15169-14.53125-13.9375zm14.53125,13.9375c.19648.26623.37041.54288.5625.8125l6.3125-4.4375c-.19334-.27198-.39645-.54358-.59375-.8125zm.5625.8125-3.28125,2.3125c1.77715,2.4936 3.37165,5.12686 4.71875,7.90625l3.625-1.71875c-1.44702-2.9869-3.15275-5.81937-5.0625-8.5zm5.0625,8.5c.14437.29801.26677.60548.40625.90625l6.96875-3.28125c-.13927-.30016-.26267-.60853-.40625-.90625zm5.28125,17.5c.0459.33038.0846.6679.125,1l7.65625-.71875c-.0394-.33371-.0807-.66783-.125-1zm.125,1-4,.375c.27599,2.23516.4375,4.50213.4375,6.8125 0,1.1523-.0241,2.30288-.0937,3.4375l4.03125.0937c.0693-1.17046.0937-2.34358.0937-3.53125 0-2.43353-.18218-4.83089-.46875-7.1875zm.375,10.71875c-.0198.33479-.0684.66672-.0937,1l7.6875.15625c.0233-.33523.0442-.66342.0625-1zm-.0937,1-4.03125-.0937c-.29825,3.74263-.95999,7.38192-1.96875,10.875l3.84375,1.15625c1.11097-3.82991 1.84351-7.83142 2.15625-11.9375zm-7.25,24.125c-.16177.29061-.33349.58743-.5.875l6.625,3.9375c.1628-.28056.34119-.56061.5-.84375zm-.5.875-3.4375-2.0625c-5.0317,8.71694-12.38467,15.93266-21.21875,20.78125l1.875,3.5625c9.47816-5.20282 17.3694-12.93454 22.78125-22.28125zm-22.78125,22.28125c-.30414.16695-.59888.33828-.90625.5l3.5625,6.8125c.3093-.16236.6311-.3017.9375-.46875zm-26.625,7.21875c-.33373.009-.66491.0274-1,.0312l.2187,7.6563c.33422-.004.66699-.0219 1-.0312zm-1,.0312-.125-4.0625h-.5625c-4.0564,0-8.00719-.44972-11.8125-1.28125l-.9375,3.96875c4.10352.90489 8.3762,1.375 12.75,1.375h.6875zm-13.4375-1.375c-.32666-.072-.64414-.17257-.96875-.25l-1.75,7.5c.32282.0765.64413.14691.96875.21875zm-17.3125-6.875c-.27304-.16224-.54232-.3335-.8125-.5l-4.03125,6.59375c.27838.17106.56268.33294.84375.5zm-.8125-.5 2.09375-3.4375c-2.29535-1.4111-4.47567-2.99616-6.53125-4.71875l-2.59375,3.09375c2.21045,1.8567 4.56287,3.5414 7.03125,5.0625zm-21.53125-23.15625c-.15298-.29452-.32061-.57761-.46875-.875l-6.8438,3.5313c.14829.29657.31619.58097.46875.875zm-.46875-.875 3.59375-1.84375c-1.12952-2.27403-2.09554-4.62284-2.90625-7.0625l-3.8125,1.25c.87726,2.63785 1.90035,5.1978 3.125,7.65625zm-3.125-7.65625c-.10896-.32762-.24041-.63862-.34375-.96875l-7.3125,2.40625c.1013.32181.20648.64907.3125.96875zm-2.65625-12.09375c-.0365-.33125-.0627-.66714-.0937-1l-7.6875.96875c.0325.33548.0876.666.125,1zm-.0937-1 3.96875-.5c-.078-.86187-.11838-1.72081-.15625-2.59375l-4.03135.1563c.0428.98532.12817,1.96519.21875,2.9375zm-.25005-3.9062 4.0312-.15625c-.0127-.48751-.0312-.97814-.0312-1.46875 0-1.83537.0748-3.64853.25-5.4375l-4-.40625c-.18931,1.92295-.28125,3.87132-.28125,5.84375 0,.54585.0165,1.08267.0312,1.625zm.375-8.4375 4,.40625c.70859-6.11383 2.39517-11.91821 4.9375-17.25l-3.65625-1.6875c-2.72718,5.72622-4.5262,11.97149-5.28125,18.53125zm5.2812-18.53125c.14669-.30801.3169-.6012.46875-.90625l-7-3.21875c-.15432.31294-.31922.62181-.46875.9375zm.46875-.90625 3.65625,1.6875c2.22017-4.44137 5.02586-8.56416 8.3125-12.21875l-3-2.65625c-3.55087,3.95063-6.578,8.38472-8.96875,13.1875zm8.96875-13.1875 .6875-.75-5.8125-5.09375-.6875.75zm8.0625-2.28125 9.75,11.25c.25293-.21662.4917-.44585.75-.65625l-9.71875-11.25c-.26233.21716-.52306.43435-.78125.65625zm10.5,10.59375 4.03125,4.6875c1.21458-.97706 2.49955-1.88271 3.84375-2.6875l-3.34375-5.21875c-1.58679.96415-3.09797,2.05124-4.53125,3.21875zm4.53125-3.21875c.27841-.16917.56097-.33746.84375-.5l-8.0625-12.5c-.2858.16944-.56132.35682-.84375.53125zm.84375-.5 3.375,5.21875c3.50485-1.95792 7.39601-3.3237 11.53125-3.9375l-.75-6.15625c-5.09377.73952-9.86442,2.40798-14.15625,4.875zm14.15625-4.875c.32791-.0476.66961-.0854 1-.125l-1.8125-14.75-1,.125zm1-.125 .75,6.15625c1.33363-.15823 2.68558-.25 4.0625-.25 2.14979,0 4.24395.21424 6.28125.59375l1.25-6.09375c-2.44062-.46463-4.95688-.71875-7.53125-.71875-1.6296,0-3.23298.12312-4.8125.3125zm12.34375.40625c.32166.0612.64984.11862.96875.1875l2.96875-14.53125c-.3228-.0684-.64388-.15606-.96875-.21875zm.96875.1875-1.21875,6.09375c.70692.15382 1.40423.3343 2.09375.53125l2.0625-5.84375c-.96699-.2876-1.94168-.56617-2.9375-.78125zm1.84375,6.9375c1.52834.48708 3.01263,1.06129 4.4375,1.75l2.75-5.5625c-1.64594-.80115-3.36322-1.48924-5.125-2.0625zm7.1875-3.8125c.30891.15036.60181.31076.90625.46875l6.59375-13.34375c-.29797-.15248-.60515-.29033-.90625-.4375zm.90625.46875-2.75,5.5625c.85958.44791 1.71714.92011 2.53125,1.4375l3.4375-5.125c-1.04255-.67045-2.11336-1.30134-3.21875-1.875zm3.21875,1.875c.27874.17925.56978.34535.84375.53125l8.28125-12.34375c-.27752-.18774-.56264-.34848-.84375-.53125zm.84375.53125-3.4375,5.125c3.04935,2.06671 5.74116,4.63712 7.96875,7.5625l5.03125-3.5625c-2.66826-3.53768-5.89018-6.63325-9.5625-9.125zm9.5625,9.125c.2024.26835.39798.53899.59375.8125l12.15625-8.5625c-.19123-.26832-.3666-.5478-.5625-.8125zm.59375.8125-5.03125,3.5625c1.07598,1.50396 2.02159,3.10684 2.84375,4.78125l5.625-2.65625c-.98122-2.00331-2.14948-3.88798-3.4375-5.6875zm3.4375,5.6875c.14534.29674.26807.60547.40625.90625l13.4375-6.34375c-.13901-.30059-.262-.60863-.40625-.90625zm.40625.90625-5.59375,2.65625c1.17897,2.59358 2.03408,5.35312 2.53125,8.25l6.1875-.59375c-.58286-3.61514-1.64309-7.0868-3.125-10.3125zm3.125,10.3125c.0535.33203.11094.66532.15625,1l14.78125-1.40625c-.0413-.33418-.0778-.66771-.125-1zm.15625,1-6.1875.59375c.22152,1.57099.34375,3.17895.34375,4.8125 0,1.00384-.0715,1.98727-.15625,2.96875l6.21875.15625c.0801-1.03446.15625-2.07038.15625-3.125 0-1.83838-.13489-3.6329-.375-5.40625zm.21875,8.53125c-.0259.33381-.0285.6685-.0625,1l14.875.3125c.0267-.33503.0731-.6633.0937-1zm-.0625,1-6.25-.125c-.20447,1.75033-.54107,3.46705-1,5.125l5.9375,1.8125c.6223-2.19872 1.07325-4.47948 1.3125-6.8125zm-1.3125,6.8125c-.0917.32392-.18169.64818-.28125.96875l-5.9375-1.8125c-.6147,1.98986-1.39268,3.9048-2.34375,5.71875l5.3125,3.15625c1.20149-2.23362 2.20268-4.57105 2.96875-7.03125l14.21875,4.34375c.0983-.31851.18856-.64779.28125-.96875zm-3.25,8.03125c-.16369.30431-.32876.60668-.5.90625l12.78125,7.59375c.16679-.28896.33834-.58275.5-.875zm-.5.90625-5.3125-3.1875c-3.04078,5.40065-7.50953,9.86205-12.90625,12.90625l2.90625,5.5c6.37905-3.57689 11.68392-8.87091 15.3125-15.21875zm-15.3125,15.21875c-.30055.16852-.60101.33905-.90625.5l6.875,13.125c.3003-.15764.60927-.30575.90625-.46875zm-.90625.5-2.875-5.5c-4.46177,2.34515-9.50712,3.70328-14.875,3.84375l.1875,6.21875c6.32395-.17065 12.28975-1.78219 17.5625-4.5625zm-17.5625,4.5625c-.33349.009-.66455.0305-1,.0312l.46875,14.8125c.33331-.003.66814-.022 1-.0312zm-1,.0312-.1875-6.21875c-2.39392-.006-4.71668-.27451-6.96875-.75l-1.40625,6.0625c2.73042.58827 5.56563.90625 8.46875.90625h.0937zm-8.5625-.9062c-.32432-.0699-.64736-.14107-.96875-.21875l-3.34375,14.4375c.32297.0768.64359.1477.96875.21875zm-.96875-.21875 1.40625-6.0625c-3.19901-.77367-6.22821-1.98771-9-3.59375l-3.21875,5.28125c3.33355,1.95489 6.95967,3.44377 10.8125,4.375zm-11.625-4.875 3.1875-5.28125c-1.36603-.84566-2.67862-1.78748-3.90625-2.8125l-3.96875,4.71875c1.4778,1.23783 3.04123,2.35668 4.6875,3.375zm-4.6875-3.375c-.25232-.21135-.50298-.43889-.75-.65625l-9.5625,11.34375c.25096.21814.49508.44262.75.65625zm-.75-.65625 3.96875-4.71875c-3.10653-2.75325-5.69537-6.06239-7.625-9.78125l-5.5,2.84375c2.31132,4.43168 5.43472,8.3816 9.15625,11.65625zm-9.15625-11.65625c-.1544-.29604-.32157-.57473-.46875-.875l-13.15625,6.8125c.1449.29173.2876.58625.4375.875zm-2.46875-5.78125c-.10733-.32078-.21312-.64445-.3125-.96875l-14.09375,4.65625c.1029.33051.23482.64096.34375.96875zm-.3125-.96875 5.90625-1.9375c-.61597-2.05336-1.03143-4.20833-1.25-6.40625l-6.1875.78125c.27091,2.59815.78705,5.13393 1.53125,7.5625zm-1.53125-7.5625c-.0345-.33117-.0361-.66652-.0625-1l-14.75,1.84375c.0304.33606.0886.66572.125,1zm-.0625-1 6.15625-.78125c-.0183-.26145-.0501-.51818-.0625-.78125l-6.1875.21875c.0206.45196.0583.89575.0937,1.34375zm-.0937-1.34375c-.0142-.31125-.0242-.62447-.0312-.9375l-14.8126.5625c.008.32163.0174.64853.0312.96875zm-.0312-.9375 6.1875-.25c-.004-.21908 0-.43616 0-.65625 0-1.1097.0527-2.19929.15625-3.28125l-6.15635-.625c-.12532,1.2885-.21875,2.58533-.21875,3.90625 0,.3042.0245.60364.0312.90625zm.2812-5.78125 6.1875.625c.4702-3.77765 1.55337-7.34205 3.15625-10.625l-5.65625-2.59375c-1.88497,3.8846-3.14401,8.13805-3.6875,12.59375zm3.6875-12.59375c.15004-.30921.31106-.6015.46875-.90625l-13.5-6.1875c-.15183.30373-.32241.59934-.46875.90625zm.4687-.90625 5.625,2.59375c1.36645-2.59974 3.06423-5.01126 5.03125-7.15625l-4.65625-4.0625c-2.35226,2.58474-4.37997,5.4942-6,8.625zm6-8.625c.23653-.25991.47558-.49637.71875-.75l-11.1875-9.8125-.71875.78125zm.71875-.75 4.625,4.09375c.73602-.75658 1.50887-1.47086 2.3125-2.15625l-4.03125-4.65625c-1.00816.86345-1.98809,1.76111-2.90625,2.71875z" fill="gray" stroke="gray" stroke-width=".2"/>
 </g>
</svg>
