<?xml version="1.0" encoding="UTF-8"?>
<svg viewBox="0 0 440 480" preserveAspectRatio="none" xmlns="http://www.w3.org/2000/svg"  fill-opacity="0.3">
 <g fill="#d59758">
  <path d="m59.62 3.7323c-1.9222 73.032 17.065 143.56 67.747 205.91 42.278-61.384 49.91-138.2 59.701-205.91-9.9803-2.1269-7.0918 8.7705-7.606 13.87-0.78842 7.8092-1.8052 15.6-2.9493 23.384-2.2705 15.452-5.1162 30.809-8.645 46.123-7.237 31.407-17.855 61.167-40.501 88.19-25.237-19.904-39.773-52.049-47.065-78.606-4.8198-17.552-8.5398-34.764-11.633-52.543-1.4124-8.1127 1.2998-41.922-9.0496-40.419"/>
  <path d="m72.532 3.7323c2.8826 50.707 11.883 105.6 53.067 146.99 43.029-36.028 43.818-101.19 47.76-146.79-6.407 0.38702-4.4151 22.279-4.9782 28.212-1.2213 12.835-3.2473 25.514-5.9343 38.215-5.417 25.603-15.932 48.593-35.961 69.588-22.218-13.01-32.388-40.72-38.042-60.586-2.6974-9.4701-10.872-74.815-15.912-75.632"/>
  <path d="m79.52 3.9354c3.311 44.173 14.48 87.293 46.964 124.57 17-12.066 23.372-35.477 27.522-52.107 6.0098-24.079 9.4675-48.058 12.276-72.461-1.4154-0.06769-2.8293-0.13539-4.2447-0.20197 1.8141 40.393-12.347 80.081-35.555 116.02-15.562-17.06-24.244-37.566-31.871-57.274-3.0931-7.9965-10.148-58.224-15.092-58.541"/>
  <path d="m45.026 3.5314c4.2387 48.186 9.6898 96.352 24.11 143.51 4.2654 13.954 9.0318 27.607 14.246 41.375 3.4784 9.1835 12.444 17.314 17.308 26.297 12.583 23.239 20.264 47.09 26.679 71.686 4.2921-47.276 30.332-88.012 44.931-133.26 7.8506-24.33 14.326-49.066 18.482-73.926 2.3936-14.315 4.1899-28.505 5.6646-42.896 0.71436-6.9697-2.7329-32.8 5.2184-32.392-2.2646 35.87-4.6374 72.088-11.6 107.64-3.5792 18.279-6.5152 36.932-12.97 54.784-6.3567 17.582-16.258 33.93-22.544 51.525-27.616 77.297-19.743 159-20.379 238.21-0.056366 6.9539-0.11118 13.908-0.16745 20.862-17.462 3.4561-10.12-25.903-10.298-33.936-0.6077-27.471-1.2139-54.941-1.8215-82.411-0.69662-31.501 1.4613-62.954-9.4142-93.604-12.26-34.553-32.244-66.91-44.277-101.52-11.612-33.394-20.752-68.307-24.339-102.78-2.0542-19.754-3.3184-39.3-4.0476-59.109-0.92631-0.014668 6.5537 0.09364 5.2184-0.067723"/>
  <path d="m100.83 477.3c4.095-75.958-3.4888-151.85-22.885-226.35-8.9339-34.317-34.466-63.783-44.664-97.75-11.298-37.625-16.005-75.194-17.895-113.7-0.58391-11.889 0.14673-23.871 0.27119-35.768-9.1414-0.50886-5.1413 14.551-5.0227 20.234 0.17486 8.3 0.53651 16.607 1.1664 24.894 1.5072 19.848 4.0713 39.529 7.151 59.269 5.503 35.267 18.138 67.412 33.7 100.5 35.082 74.59 33.7 150.99 38.032 229.22 0.37495 6.7485-4.6166 43.22 10.146 39.443"/>
  <path d="m82.172 476.96c1.4569-55.004-2.1252-110.64-10.326-165.28-3.9898-26.59-8.227-53.488-17.441-79.363-5.2036-14.611-9.9462-28.093-18.17-41.816-8.851-14.77-17.98-23.08-32.692-35.062-0.21638 5.1576-1.6748 11.913 1.3265 15.016 5.1739 5.346 14.844 9.0255 20.497 15.42 10.357 11.719 15.002 26.367 20.136 39.752 11.055 28.824 15.135 58.867 19.881 88.573 4.1824 26.185 6.9583 53.014 7.7898 79.371 0.52466 16.603 1.0478 33.208 1.5724 49.811 0.18968 6.0376-4.6538 36.282 7.4267 33.577"/>
  <path d="m1.245 186.41c24.955 6.5815 34.91 40.886 40.508 57.773 7.8447 23.667 12.807 48.177 16.032 72.44 7.0858 53.29 8.3915 106.82 11.21 160.33-7.7483 0.49875-4.9931-18.555-5.2895-23.172-1.1901-18.576-2.3817-37.151-3.5718-55.728-1.5532-24.229-2.6559-48.486-5.4881-72.653-3.013-25.699-8.9724-51.006-17.78-75.902-4.1884-11.836-10.464-22.716-18.533-33.264-4.3218-5.6473-10.097-9.5276-16.254-14.122-3.1168-2.3266-0.70694-12.407-0.83286-15.705"/>
  <path d="m47.502 476.96c6.2558-41.496 4.8893-83.357 2.3876-124.97-2.2023-36.611-1.6985-100.51-48.556-121.13-3.8994 9.9158 10.499 14.321 17.014 22.965 7.068 9.3786 10.495 19.968 14.388 30.276 8.1159 21.489 9.5119 44.932 11.224 67.13 1.6095 20.872 0.68169 41.65-0.58545 62.532-0.98412 16.207 2.5832 50.783-13.561 63.203 5.8957-0.001129 11.791-0.001129 17.689-0.001129"/>
  <path d="m1.245 262.09c28.625 25.787 26.772 73.039 27.802 104.68 1.0582 32.517 6.1581 69.675-11.363 100.25-4.0268 7.0284-17.223 16.676-16.352 3.1954 0.45356-7.0307 7.9573-15.929 10.252-22.949 5.5726-17.048 10.67-35.054 10.985-52.708 0.70983-39.75-6.9821-75.642-21.086-113.82-2.0275-5.495-0.019272-12.97-0.23854-18.66"/>
  <path d="m2.0408 170.25c-0.23564-22.558-0.47129-45.114-0.70693-67.672 0.98256 26.514 8.3781 52.993 23.881 76.76-4.8968-5.6112-13.737-11.759-23.174-9.0887"/>
  <path d="m1.245 321.75c12.377 36.011 12.673 74.251 0.088921 110.09 0-36.632 1.2064-73.588-0.088921-110.09"/>
  <path d="m147.18 476.96c0.18527-36.016-0.74998-72.023 0.051834-108.04 0.83141-37.314-1.1116-76.747 9.1177-113.39 9.2408-33.098 32.361-63.318 39.563-97.262 7.4697-35.204 10.964-71.385 14.718-106.91 1.6688-15.789 3.2532-31.607 1.6452-47.421h4.1557c-2.5906 70.506-8.4403 140.06-31.176 208.53-4.9412 14.88-15.454 30.314-17.954 45.148-3.0782 18.264-5.1917 36.559-7.1436 54.91-3.8993 36.658-4.5115 73.549-4.2417 110.3 0.13188 17.987 0.97081 35.946 1.7 53.925-3.2072 0.063232-7.317 0.72327-10.437 0.19971"/>
  <path d="m165.75 476.76c1.6125-70.535-7.1021-145.94 14.631-215.09 4.8938-15.573 16.091-29.918 20.872-44.897 5.4349-17.034 10.435-34.133 14.793-51.348 9.6068-37.951 6.0572-77.355 6.4959-115.82 0.12601-11.137 0.25348-22.274 0.3794-33.411 0.004517-0.41185-0.63132-16.808 3.9438-12.459 2.1298 2.0231 0 12.046 0 14.505v37.75c0 37.248 2.6114 74.167-5.4392 110.96-3.7319 17.056-7.3141 34.599-14.55 51.038-6.9495 15.79-15.744 30.377-20.491 46.801-9.3415 32.32-7.0887 67.502-8.6019 100.39-1.2035 26.147-2.4069 52.294-3.6104 78.44-0.26831 5.8391 4.4551 36.321-8.4226 33.131"/>
  <path d="m299.84 289.43c-2.3966-12.698-5.8646-24.958-12.204-36.9-6.0365-11.374-16.663-21.166-22.415-32.451-12.432-24.388-18.564-51.165-22.428-77.102-3.5245 33.306-19.841 67.006-36.376 97.77-17.939 33.374-17.309 75.518-20.143 111.1-2.942 36.919-4.2581 73.946-4.4611 110.93-0.023712 4.1523-0.044525 8.3023-0.044525 12.454 0 2.7701 5.4378 2.4869 5.5845-0.7503 0.56766-12.653 1.1368-25.306 1.7044-37.959 0.86551-19.255 2.2424-38.482 3.5629-57.723 2.5196-36.708 6.6382-73.857 15.018-110.08 7.32-31.65 29.533-61.292 32.503-93.427 4.178 24.174 14.936 44.005 30.113 65.08 17.382 24.135 24.425 46.101 26.501 73.276 2.0838 27.287 2.1505 55.135-1.2494 82.365-3.4888 27.95-16.372 53.5-19.546 81.275 9.7728 1.7015 7.2474-16.243 7.8861-21.601 0.72919-6.1145 4.0965-12.625 5.7372-18.666 4.3751-16.098 7.6727-32.392 9.8158-48.75 4.3306-33.04 3.4192-65.775 0.44019-98.843"/>
  <path d="m201.66 476.76c-1.8156-43.093-4.7589-86.649-0.15271-129.68 4.2032-39.265 5.875-92.516 37.298-125.32 44.913 29.496 51.058 79.528 50.065 121.48-0.52622 22.248-1.7889 44.665-5.1355 66.78-1.7696 11.697-3.9824 23.337-8.9117 34.518-3.2606 7.3973-1.4094 33.941-12.135 32.751 5.4139-39.574 18.152-77.356 20.3-117.39 2.324-43.322-9.9166-83.677-42.856-118.96-22.157 35.063-28.718 76.751-31.19 115.15-1.2953 20.117-2.69 40.22-3.6177 60.349-0.88629 19.23-4.4818 41.476 1.817 60.309-1.8259 0.001099-3.6534 0.001099-5.4807 0.001099"/>
  <path d="m241.46 159.14c-0.73508-51.803-1.4731-103.6-2.2097-155.41 8.9236-0.96245 4.7575 16.172 4.8049 21.035 0.17929 18.352 0.35858 36.706 0.53949 55.058 0.28006 28.795 0.56311 57.59 0.8447 86.385-1.3175-2.3424-2.8604-4.6679-3.9794-7.0701"/>
  <path d="m263.75 3.7323c0 35.812 0.31866 71.636 1.7044 107.43 1.3013 33.57-2.9746 73.83 15.904 104.79 39.499 64.775 34.208 141.68 25.068 211.19-2.2172 16.858-7.1318 33.176-12.341 49.608 27.054 2.8659 23.165-188.2 17.16-209.95-4.2239-15.296-12.374-31.555-19.99-46.056-7.0858-13.49-9.6735-27.645-12.294-42.084-6.8739-37.895-4.5514-77.121-5.6734-115.27-0.43121-14.676-0.86252-29.352-1.2953-44.027-0.16455-5.6383 4.1587-18.842-8.2419-15.638"/>
  <path d="m293.38 3.9354c1.1131 73.332-5.1873 147.91 14.072 220.1 9.0807 34.036 15.66 66.773 16.841 101.69 1.1604 34.366-1.8363 69.47-6.2915 103.67-2.0867 16.02-4.4388 31.858-10.914 47.23 11.468 2.6843 14.544-34.241 15.643-41.21 2.9182-18.499 5.1976-36.968 6.3685-55.583 2.4439-38.886 0.22235-77.322-3.8875-116.09-3.314-31.276-11.476-62.189-15.015-93.428-4.1854-36.952-7.1732-73.943-9.512-110.99-0.60028-9.4983-0.95596-19.017-1.2894-28.523-0.22235-6.3265 4.2684-27.894-6.0158-26.866"/>
  <path d="m339.55 3.9354c0.28458 74.77-1.2212 149.48 1.1264 224.25 2.2646 72.132 11.83 145.71-0.045959 217.63-1.7607 10.662-4.3722 20.388-7.8921 30.801 15.424 0.17606 12.353-3.0205 13.032-13.89 0.57062-9.1237 1.1782-18.251 1.5918-27.38 0.83585-18.44 1.6584-36.879 2.0022-55.329 0.72775-39.194 0.59576-78.35-0.35568-117.54-2.0023-82.439-1.7607-164.94-2.6203-247.39-0.053375-4.9816 3.3954-13.531-6.8384-11.154"/>
  <path d="m384.74 3.7323c2.1846 35.738 2.3773 71.539-0.64914 107.25-2.9612 34.934-14.993 69.126-17.711 104.26-2.9804 38.535-2.1475 76.378 1.694 114.85 3.4844 34.896 10.859 69 11.464 104.18 0.25049 14.537 0.010406 28.833-4.3484 43.031 14.908 0 17.612 2.4507 17.499-8.9003-0.10223-10.271-0.43567-20.523-0.91589-30.788-0.78256-16.714-2.1802-33.656-5.0865-50.238-6.4277-36.671-14.152-72.495-16.143-109.56-2.0008-37.236 0.80914-74.708 7.9929-111.56 6.9865-35.834 8.8066-72.3 11.608-108.45 0.76773-9.9135 1.5517-19.834 1.9712-29.76 0.26974-6.4247 6.1787-27.378-7.3748-24.304"/>
  <path d="m400.66 3.7323c0.010315 36.225-0.75442 72.566-4.6878 108.68-3.9409 36.17-14.382 72.368-18.209 108.88-3.7171 35.445-1.1264 67.841 10.361 102.2 11.184 33.452 20.353 67.606 18.809 102.27-0.76627 17.179-1.5296 34.358-2.2958 51.536 10.386 1.9035 6.9481-7.9558 7.1644-13.4 0.35724-9.0154 0.61649-18.031 0.8551-27.049 0.44327-16.74 0.04895-33.452-0.76617-50.184-0.87744-18.015-2.3847-35.968-4.9072-53.892-2.4098-17.134-10.388-32.727-13.493-49.651-13.159-71.718 6.5701-144.12 11.633-215.82 0.59885-8.4636 7.2074-65.293-4.464-63.562"/>
  <path d="m218.47 476.76c-0.51434-31.944-4.5855-63.17-2.8278-95.251 2.0305-37.077 1.442-78.771 24.497-112.27 27.008 31.204 31.005 70.719 30.881 106.96-0.11264 33.762-19.116 67.01-14.962 100.76-16.26 0.99072-11.084-6.85-11.409-17.508-0.21484-7.0679-1.113-14.244 0.04306-21.275 2.4098-14.645 10.748-26.94 15.479-40.973 11.806-35.015 4.5604-67.68-18.707-98.679-17.431 26.433-22.282 60.897-19.101 90.058 1.4495 13.279 5.4229 26.739 3.8727 40.066-1.8957 16.286-2.7893 31.498-2.2839 48.112h-5.4822"/>
  <path d="m232.18 476.96c-0.081604-14.023-1.7148-30.642 3.9808-44.104-0.044434 7.2417 3.7733 44.105-3.9808 44.104"/>
  <path d="m426.93 3.7323c0 35.57 1.8882 72.542-4.424 107.85-2.7064 15.13-11.566 30.032-16.773 44.832-6.0483 17.189-8.8732 34.898-9.8676 52.63-1.6689 29.792-1.2672 69.918 13.733 97.76 17.196 31.916 16.168 62.447 17.038 96.463 0.60913 23.792 1.2183 47.584 1.8259 71.377 0.04895 1.9012 1.6347 4.5166 5.1014 2.3119 1.5487-0.98383 0.15558-10.82 0.16888-12.135 0.084473-9.0254 0.10974-18.051 0.15564-27.076 0.17786-34.245 1.3621-68.866-4.0045-102.9-5.4586-34.611-26.157-64.852-25.6-100.64 0.54547-35.009 14.109-67.15 22.916-101.17 10.806-41.734 4.7856-86.947 5.3014-129.31-1.8571-0.001117-3.7142-0.001117-5.5712-0.001117"/>
  <path d="m440.64 3.9354c-0.00885 30.626 0.48315 61.265 1.8704 91.872 0.61511 13.566 0.26831 28.066 6.2662 40.911 6.1847 13.244 14.302 25.846 14.418 40.267-0.14386-13.399 3.2309-30.056-1.5058-42.757-3.477-9.3268-8.9711-16.237-9.5758-26.412-1.2182-20.522-2.4379-41.043-3.6562-61.565-0.36609-6.1595 2.4232-44.059-7.8165-42.316"/>
  <path d="m463.19 263.51c-20.107 68.224-23.143 138.67-21.52 208.52 0.07251 3.1458 3.8282 8.0258 3.8282 3.0736 0-3.9853-0.023682-7.9694 0-11.955 0.056274-9.7306 0.29633-19.454 0.57208-29.181 0.47424-16.766 0.95142-33.634 2.6677-50.357 1.8896-18.424 2.9389-37.519 8.7872-55.534 6.5004-20.023 5.3696-39.511 5.6156-60.348 0.014771-1.4093 0.032654-2.8163 0.04895-4.2245"/>
  <path d="m450.81 477.09c0.026672-32.662-4.7575-74.244 12.383-104.84-0.28912 18.21-0.20911 36.251-2.5211 54.373-1.2197 9.5558-2.269 19.125-3.4162 28.687-0.61066 5.1034 0.60168 21.964-6.4456 21.781"/>
  <path d="m456.38 3.7323c0.022278 29.977-4.6626 65.87 6.6338 94.807-0.04895-17.495-0.097778-34.99-0.14813-52.485-0.017822-6.4326 5.7297-44.632-6.4857-42.321"/>
 </g>
 <g fill="#8b5c29">
  <path d="m68.905 147.56c13.564 46.614 46.248 87.252 58.462 134.46 3.9334-25.496 9.8143-50.989 20.422-75.387 10.172-23.392 22.024-44.992 29.108-69.38-9.7951 31.8-25.352 62.175-35.113 93.796-11.182 36.228-13.531 71.151-13.531 108.21-2.0838-32.478-3.9394-65.178-15.832-96.589-12.186-32.19-39.217-60.998-43.515-95.11"/>
  <path d="m78.989 91.874c6.6427 30.076 24.887 57.086 47.76 81.744 23.65-15.881 31.952-50.805 37.426-73.213 7.7616-31.778 15.504-64.303 16.438-96.673 0.53055 0.067688 1.0597 0.13541 1.5903 0.20197-2.5625 30.121-4.8982 62.973-15.827 92.102-10.81 28.811-13.955 56.472-39.626 80.745-29.141-20.917-39.259-56.418-47.76-84.908"/>
  <path d="m126.48 139.95c18.541-17.245 27.088-39.341 33.874-60.601-3.2265 19.047-12.132 40.447-27.166 56.054-9.875 10.252-11.851 4.7762-19.018-5.3223-7.6209-10.737-13.746-21.938-19.796-33.226 7.0591 13.788 15.713 34.216 32.106 43.095"/>
  <path d="m126.48 119.75c15.228-18.799 24.469-39.371 29.187-61.072-3.5393 23.007-14.541 44.012-30.071 63.766-13.442-16.749-22.39-35.443-28.921-54.34 7.5437 17.918 17.045 35.498 29.806 51.646"/>
  <path d="m97.915 3.7323c-0.023697 27.687 9.1089 53.91 27.684 77.637 4.2714-6.0095-14.618-26.999-17.792-34.567-5.8631-13.983-7.9484-28.534-9.8914-43.069"/>
  <path d="m125.6 81.369c8.7012-15.044 16.906-31.264 18.308-47.807-0.89519 7.8419-3.3421 15.464-6.3685 22.973-2.819 6.9968-13.546 17.9-11.94 24.834"/>
  <path d="m195.47 156.11c-2.8116 19.226-8.4924 38.346-17.749 56.371-8.3234 16.21-21.136 32.444-23.818 50.018 8.8257-36.668 32.979-69.312 41.568-106.39"/>
  <path d="m215.81 169.58c-4.71 15.465-6.5285 34.2-15.433 48.547-8.156 13.14-17.573 27.803-19.944 42.354 2.9493-12.89 6.6605-28.339 16.084-39.478 11.68-13.806 13.797-35.566 19.294-51.424"/>
  <path d="m240.58 155.17c-4.9753 20.264-11.197 40.563-19.953 60.079-8.3056 18.505-22.679 35.146-23.651 55.333 8.3204-39.676 38.233-75.319 43.604-115.41"/>
  <path d="m216.96 264.25c3.2028-8.7851 11.826-42.016 26.178-38.314 18.167 4.6871 30.011 35.873 35.202 47.806-4.6848-16.397-14.148-37.333-32.446-47.891-10.962-6.3243-13.122 1.1351-18.146 9.7138-5.3578 9.1508-8.1692 19.141-10.788 28.684"/>
  <path d="m248.8 169.98c3.2428 21.588 9.2911 44.367 26.004 62.419-16.645-17.151-21.084-41.985-26.004-62.419"/>
  <path d="m280.64 185.27c1.0226 31.508 27.256 57.127 31.31 88.477-5.1591-31.011-26.618-57.682-31.31-88.477"/>
  <path d="m240.14 269.17c14.135 17.415 21.426 37.155 26.356 57.099-3.8268-19.12-13.311-37.191-25.913-53.868-10.601 14.036-14.222 31.469-18.31 47.134 2.9315-16.237 5.2495-36.556 17.866-50.365"/>
  <path d="m242.79 326.8c6.9762 9.9293 11.227 21.83 10.17 33.128-0.25787-10.614-3.3614-21.427-10.613-30.57-2.7655 4.8123-5.4866 9.6912-7.0739 14.814 1.1931-5.8876 2.6959-12.553 7.5171-17.372"/>
  <path d="m306.91 133.22c2.5625 55.696 20.002 109.98 22.111 165.64-4.1202-55.696-15.682-110.16-22.111-165.64"/>
  <path d="m381.2 129.18c-8.0551 34.917-14.619 70.246-15.919 105.71-0.52032-35.559 5.9594-71.063 15.919-105.71"/>
  <path d="m393.59 125.81c-8.8747 37.423-15.809 75.092-17.692 113.12 3.3925-37.823 10.791-75.597 17.692-113.12"/>
  <path d="m426.31 77.33c0.28015 49.542-30.432 94.538-30.068 144.77 1.3962-24.819 3.9838-50.431 11.253-74.694 7.0473-23.522 18.483-45.617 18.815-70.075"/>
  <path d="m439.13 139.95c-11.246 20.538-18.94 42.009-23.436 63.967 6.6234-17.869 11.622-38.739 22.996-55.214 17.734 13.883 18.425 39.929 20.342 57.907-3.1049-18.758-2.7181-51.993-19.901-66.66"/>
  <path d="m451.96 106.28c-3.0708 9.443 2.2424 18.835 9.7269 26.26-6.49-7.7708-9.5312-17.117-9.7269-26.26"/>
  <path d="m1.245 262.09c12.753 9.0413 16.702 27.77 19.378 40.211 4.1395 19.232 6.5968 38.404 8.5694 57.828-1.1635-32.039 0.53941-76.731-28.302-102.35-0.10973-0.90607 0.66541 5.5276 0.35424 4.3091"/>
  <path d="m1.245 230.85c32.409 7.7753 38.411 49.812 42.985 70.701-2.2809-27.238-10.173-59.612-44.222-73.394-0.12447-0.2347 1.4465 3.0938 1.2376 2.6933"/>
  <path d="m1.245 186.41c40.373 16.838 45.998 73.346 51.828 103.69-5.3207-37.503-13.826-81.417-51.298-108.41-0.094894 1.5289-0.64326 3.3128-0.53054 4.713"/>
 </g>
 <path d="m11.416 175.64c-5.9609-7.9411-8.264-17.139-9.8173-26.126 0.060791 8.3992-6.5211 27.526 9.8173 26.126" fill="#faf2e3"/>
 <g fill="#8b5c29">
  <path d="m3.4562 120.76c3.4904 16.768 5.9447 33.15 17.866 47.741 12.104 14.815 22.024 29.878 27.773 46.865-5.3607-17.536-13.78-34.73-27.888-49.28-12.137-12.52-13.561-30.431-17.751-45.326"/>
  <path d="m261.8 392.45c-6.8116 16.563-17.166 31.813-17.687 49.49 2.5077-17.241 12.374-32.727 17.687-49.49"/>
  <path d="m223.77 400.53c1.703 7.8476 3.9779 16.296 2.653 24.24 5.1428-7.0069 0.41492-17.214-2.653-24.24"/>
  <path d="m275.95 416.02c-2.4602 15.091-9.9536 29.317-11.498 44.44 4.6922-14.286 11.485-29.62 11.498-44.44"/>
  <path d="m294.09 476.76c7.0384-22.095 13.302-44.701 14.593-67.471-4.0001 21.293-5.2792 48.692-18.573 68.008 1.3264-0.17947 2.6544-0.3577 3.9808-0.53717"/>
  <path d="m307.09 476.62c9.0792-25.827 13.543-52.764 13.977-79.454-2.3847 26.73-6.5255 53.768-16.805 79.454h2.8278"/>
  <path d="m332.73 476.62c15.135-37.625 13.257-79.641 12.208-118.51 0.97968 19.494 1.0389 39.336-1.2538 58.782-1.236 10.484-2.0838 21.205-4.71 31.556-1.322 5.2184-9.3372 27.796-6.244 28.171"/>
  <path d="m463.19 372.25c-7.652 17.417-10.12 35.819-10.967 54.071 1.0864-18.074 0.5321-41.36 11.23-57.908-0.087463 1.2784-0.17639 2.558-0.26233 3.8374"/>
  <path d="m463.19 263.51c-8.0507 26.124-13.552 51.744-16.273 78.444 2.4528-26.282 16.638-52.24 16.273-78.444"/>
  <path d="m409.15 272.33c5.743 17.718 17.256 35.159 18.928 53.465-5.0925-17.34-19.919-35.452-18.928-53.465"/>
  <path d="m1.688 468.07c14.732-17.267 17.471-40.147 19.546-60.131-0.85963 9.9372-2.7285 19.976-5.5712 29.696-2.8797 9.8503-13.013 21.142-13.974 30.434"/>
  <path d="m29.814 476.96c15.618-14.526 12.432-42.482 12.646-60.06-0.031113 15.332 3.0768 49.955-15.654 59.926 1.0019 0.045105 2.0038 0.090271 3.0072 0.13422"/>
 </g>
</svg>
